<svg width="47" height="55" viewBox="0 0 47 55" fill="none" xmlns="http://www.w3.org/2000/svg">
<path d="M19.5924 27.419L1.34162 26.9418C1.16065 26.9377 0.982273 26.8977 0.816763 26.8242C0.651254 26.7507 0.501882 26.6452 0.377241 26.5136C0.252601 26.382 0.155116 26.227 0.0904744 26.0575C0.0258329 25.888 -0.00469419 25.7073 0.0005843 25.526C-0.000758139 25.3426 0.0353175 25.1609 0.106651 24.992C0.177984 24.8231 0.283051 24.6707 0.415357 24.544C0.547664 24.4173 0.704422 24.3191 0.875996 24.2555C1.04757 24.1918 1.23032 24.164 1.41301 24.1738L19.6638 24.651C20.03 24.651 20.3812 24.7969 20.6401 25.0564C20.8991 25.316 21.0445 25.668 21.0445 26.035C21.0445 26.4021 20.8991 26.7541 20.6401 27.0137C20.3812 27.2732 20.03 27.419 19.6638 27.419H19.5924Z" fill="#EDB24E"/>
<path d="M45.532 27.586L32.8358 27.2121C32.6548 27.207 32.4766 27.1661 32.3115 27.0916C32.1464 27.0172 31.9976 26.9107 31.8737 26.7784C31.7498 26.646 31.6532 26.4904 31.5895 26.3205C31.5258 26.1506 31.4963 25.9698 31.5027 25.7884C31.5211 25.4241 31.6791 25.0809 31.9437 24.8304C32.2083 24.58 32.5592 24.4416 32.9231 24.4442L45.6193 24.818C45.9855 24.818 46.3367 24.9638 46.5956 25.2233C46.8545 25.4829 47 25.835 47 26.202C47 26.5691 46.8545 26.9211 46.5956 27.1806C46.3367 27.4402 45.9855 27.586 45.6193 27.586H45.532Z" fill="#EDB24E"/>
<path d="M26.3607 19.4014C25.9965 19.3993 25.6477 19.254 25.3895 18.9966C25.1312 18.7392 24.9842 18.3904 24.98 18.0254L24.8531 1.5287C24.853 1.16227 24.9971 0.810618 25.2541 0.550028C25.5111 0.289437 25.8603 0.14093 26.2258 0.136742C26.4068 0.135693 26.5861 0.170494 26.7536 0.239177C26.9211 0.307861 27.0733 0.409086 27.2016 0.536968C27.33 0.664851 27.4318 0.816864 27.5013 0.984335C27.5708 1.15181 27.6065 1.3314 27.6065 1.51278L27.7335 18.0413C27.7356 18.223 27.7019 18.4034 27.6345 18.5722C27.567 18.7409 27.4671 18.8946 27.3403 19.0246C27.2136 19.1546 27.0626 19.2583 26.8958 19.3298C26.7291 19.4013 26.55 19.4391 26.3687 19.4412L26.3607 19.4014Z" fill="#EDB24E"/>
<path d="M26.4642 54.1367C26.1021 54.1368 25.7545 53.9942 25.4962 53.7398C25.238 53.4854 25.0897 53.1395 25.0835 52.7766L24.8137 33.6869C24.8084 33.3198 24.9489 32.9657 25.2041 32.7024C25.4593 32.4391 25.8084 32.2882 26.1746 32.283C26.5408 32.2777 26.894 32.4185 27.1567 32.6743C27.4193 32.9301 27.5699 33.28 27.5751 33.6471L27.8449 52.7368C27.847 52.9185 27.8134 53.0989 27.7459 53.2676C27.6785 53.4363 27.5785 53.5901 27.4518 53.7201C27.325 53.8501 27.174 53.9538 27.0073 54.0252C26.8406 54.0967 26.6614 54.1346 26.4801 54.1367H26.4642Z" fill="#EDB24E"/>
</svg>
