<svg width="41" height="69" viewBox="0 0 41 69" fill="none" xmlns="http://www.w3.org/2000/svg">
<path d="M19.8408 68.1367H19.5749C19.0953 68.0709 18.6581 67.8276 18.3502 67.4552C18.0423 67.0828 17.8863 66.6085 17.913 66.1267C18.5445 55.734 11.886 44.8332 0.950799 38.3281C0.661293 38.1585 0.421265 37.9164 0.254495 37.6258C0.087726 37.3352 0 37.0062 0 36.6715C0 36.3367 0.087726 36.0077 0.254495 35.7172C0.421265 35.4266 0.661293 35.1845 0.950799 35.0148C12.307 28.6202 19.8741 15.3891 19.7854 2.08068C19.7794 1.57662 19.9723 1.0904 20.3225 0.726797C20.6728 0.363194 21.1523 0.151349 21.6578 0.1369C22.1595 0.130101 22.6447 0.315221 23.0136 0.654197C23.3825 0.993174 23.607 1.46022 23.641 1.9592C24.0066 8.8619 24.3833 15.9855 26.7875 22.4354C29.3357 29.316 34.133 34.3743 39.6061 35.9757C40.022 36.0952 40.3854 36.3507 40.6379 36.7011C40.8904 37.0515 41.0173 37.4764 40.9981 37.9074C40.9789 38.3384 40.8148 38.7505 40.5321 39.0772C40.2495 39.404 39.8647 39.6264 39.4399 39.7087C34.6758 40.6474 30.1999 44.3362 27.1642 49.8142C24.3279 54.9498 22.9762 60.9138 21.6246 66.6678C21.5267 67.0721 21.3 67.4338 20.9783 67.6987C20.6567 67.9636 20.2575 68.1172 19.8408 68.1367ZM5.5376 36.6825C12.4992 41.3628 17.7328 48.1857 20.4391 56.1095C21.2908 53.2734 22.4305 50.5312 23.8404 47.9256C26.1351 43.5609 29.6636 39.9629 33.9889 37.5771C28.963 34.2782 25.1758 29.4116 23.22 23.7386C22.3238 21.2882 21.6454 18.7641 21.1925 16.1953C18.2405 24.4822 12.7678 31.6442 5.5376 36.6825Z" fill="#EDB24E"/>
</svg>
